<svg width="55" height="41" viewBox="0 0 55 41" fill="none" xmlns="http://www.w3.org/2000/svg">
<path d="M24.4566 22.1359V37.1449C25.1979 36.7746 26.0152 36.5818 26.8439 36.5818C27.6725 36.5818 28.4899 36.7746 29.2312 37.1449V22.1359C28.4362 22.1228 27.6388 22.0918 26.8439 22.0918C26.0489 22.0918 25.2563 22.1228 24.4566 22.1359Z" fill="#7CD0BB"/>
<path d="M16.101 39.3926C16.1008 39.5963 16.1527 39.7966 16.2518 39.9745C16.3509 40.1524 16.4938 40.302 16.6671 40.4091C16.8403 40.5162 17.038 40.5772 17.2415 40.5862C17.4449 40.5953 17.6473 40.5522 17.8294 40.4609L22.0693 38.3386V22.1801C20.0806 22.2458 18.0908 22.3401 16.101 22.4761V39.3926Z" fill="#7CD0BB"/>
<path d="M31.6185 38.3386L35.8595 40.4597C36.0415 40.5506 36.2436 40.5936 36.4468 40.5844C36.65 40.5753 36.8475 40.5143 37.0205 40.4074C37.1935 40.3005 37.3364 40.1512 37.4355 39.9736C37.5346 39.796 37.5866 39.596 37.5868 39.3926V22.4761C35.5981 22.3401 33.6071 22.2458 31.6185 22.1801V38.3386Z" fill="#7CD0BB"/>
<path d="M16.101 1.40335V20.084C23.2547 19.6006 30.433 19.6006 37.5868 20.084V1.40335C30.433 1.88678 23.2547 1.88678 16.101 1.40335Z" fill="#7CD0BB"/>
<path d="M1.86308 0.760655C-0.616902 7.17316 -0.621157 14.2792 1.85114 20.6947C1.94452 20.9548 2.12527 21.1745 2.36254 21.3162C2.59982 21.4579 2.87892 21.5129 3.15222 21.4717C6.66395 20.9453 10.1948 20.555 13.7173 20.2626V1.22379C10.1888 0.932542 6.66395 0.542217 3.15222 0.0146215C2.8846 -0.0255842 2.61125 0.026347 2.37701 0.1619C2.14278 0.297453 1.96156 0.50858 1.86308 0.760655Z" fill="#7CD0BB"/>
<path d="M51.7913 0.66092C51.6795 0.434721 51.4985 0.25004 51.2746 0.133698C51.0507 0.0173574 50.7956 -0.0245853 50.5463 0.0139592C47.0345 0.541554 43.5097 0.93188 39.98 1.22313V20.2643C43.5097 20.5567 47.0345 20.9471 50.5463 21.4735C50.7955 21.5109 51.0502 21.4684 51.2738 21.3522C51.4975 21.236 51.6786 21.052 51.7913 20.8265C53.4391 17.7211 54.3007 14.2592 54.3007 10.7437C54.3007 7.22822 53.4391 3.7663 51.7913 0.66092Z" fill="#7CD0BB"/>
</svg>
