<svg width="38" height="39" viewBox="0 0 38 39" fill="none" xmlns="http://www.w3.org/2000/svg">
<path d="M19 0.166595C15.2422 0.166595 11.5687 1.28093 8.44417 3.36867C5.31964 5.45642 2.88436 8.42381 1.4463 11.8956C0.00823233 15.3674 -0.368031 19.1877 0.365088 22.8733C1.09821 26.5589 2.90778 29.9444 5.56498 32.6016C8.22218 35.2588 11.6077 37.0684 15.2933 37.8015C18.9789 38.5346 22.7992 38.1584 26.271 36.7203C29.7428 35.2822 32.7102 32.847 34.7979 29.7224C36.8857 26.5979 38 22.9244 38 19.1666C37.9945 14.1292 35.9909 9.29965 32.4289 5.73765C28.8669 2.17565 24.0374 0.172104 19 0.166595ZM27.7056 16.4523L18.3251 24.2414C18.0769 24.4466 17.7707 24.5688 17.4495 24.5907C17.1282 24.6126 16.8082 24.5332 16.5345 24.3635L10.4645 20.5907C10.2785 20.4917 10.1148 20.3556 9.98358 20.1908C9.85236 20.0259 9.75641 19.8359 9.70167 19.6324C9.64694 19.429 9.63458 19.2164 9.66538 19.008C9.69617 18.7996 9.76946 18.5997 9.8807 18.4208C9.99193 18.2418 10.1387 18.0877 10.312 17.9678C10.4853 17.848 10.6814 17.765 10.888 17.7241C11.0947 17.6831 11.3076 17.6851 11.5135 17.7298C11.7194 17.7745 11.9139 17.8611 12.0849 17.9841L17.2149 21.1734L25.745 14.0918C26.0612 13.8648 26.4516 13.7661 26.8376 13.8156C27.2237 13.8651 27.5766 14.0591 27.8253 14.3584C28.0739 14.6578 28.1999 15.0404 28.1777 15.4289C28.1555 15.8175 27.9868 16.1832 27.7056 16.4523Z" fill="#00A87C" fill-opacity="0.5"/>
</svg>
