<svg width="63" height="42" viewBox="0 0 63 42" fill="none" xmlns="http://www.w3.org/2000/svg">
<path d="M62.2185 12.6L32.071 0.0977021C31.9175 0.0331256 31.7528 -0.00012207 31.5865 -0.00012207C31.4202 -0.00012207 31.2555 0.0331256 31.102 0.0977021L0.768031 13.0517C0.539307 13.1497 0.344365 13.3138 0.207715 13.5233C0.0710637 13.7329 -0.00119692 13.9785 1.49979e-05 14.2294C0.00122692 14.4803 0.0758582 14.7253 0.214527 14.9335C0.353195 15.1416 0.549712 15.3038 0.779372 15.3995L30.9269 27.9018C31.0806 27.9665 31.2455 27.9999 31.412 27.9999C31.5785 27.9999 31.7434 27.9665 31.8971 27.9018L62.2311 14.949C62.4601 14.8511 62.6554 14.687 62.7922 14.4772C62.929 14.2674 63.0013 14.0215 63 13.7703C62.9986 13.5191 62.9237 13.2739 62.7846 13.0657C62.6456 12.8574 62.4486 12.6954 62.2185 12.6Z" fill="#00A87C" fill-opacity="0.5"/>
<path d="M30.941 30.8441L10 22.3172V33.2386C10 33.4175 10.0386 33.5944 10.1132 33.7573C10.1878 33.9202 10.2967 34.0654 10.4325 34.1831C16.2747 39.2237 23.7572 41.9999 31.5006 41.9999C39.2441 41.9999 46.7266 39.2237 52.5687 34.1831C52.7044 34.0653 52.813 33.92 52.8874 33.7571C52.9618 33.5942 53.0002 33.4174 53 33.2386V21.9999L31.9136 30.8366C31.76 30.9014 31.595 30.9355 31.428 30.9368C31.2611 30.9381 31.0956 30.9066 30.941 30.8441Z" fill="#00A87C" fill-opacity="0.5"/>
</svg>
