<svg width="50" height="49" viewBox="0 0 50 49" fill="none" xmlns="http://www.w3.org/2000/svg">
<path d="M42.8753 44.2737C38.3986 44.2737 38.2134 46.2541 34.2961 46.2541C30.4264 46.2541 30.159 44.2737 25.7129 44.2737C21.2411 44.2737 21.051 46.2541 17.1278 46.2541H9.17539C9.80615 46.0442 10.4359 45.8323 11.0568 45.6016C11.2755 44.4793 11.2134 43.3203 10.8761 42.2278C10.5387 41.1353 9.93655 40.1431 9.12314 39.3395C8.30973 38.5358 7.31031 37.9457 6.21377 37.6217C5.11724 37.2976 3.9576 37.2495 2.83802 37.4818C1.7217 40.6008 0.877199 43.8105 0.313963 47.075C0.289322 47.217 0.295964 47.3627 0.333425 47.5018C0.370887 47.6409 0.438265 47.7702 0.530857 47.8806C0.623448 47.9911 0.739023 48.0799 0.869511 48.1411C0.999999 48.2022 1.14226 48.2341 1.28635 48.2346H17.1298C21.6105 48.2346 21.7838 46.2541 25.7149 46.2541C29.5847 46.2541 29.8511 48.2346 34.2981 48.2346C38.7679 48.2346 38.966 46.2541 42.8773 46.2541C43.1399 46.2541 43.3918 46.1498 43.5775 45.9641C43.7632 45.7784 43.8675 45.5266 43.8675 45.2639C43.8675 45.0013 43.7632 44.7494 43.5775 44.5637C43.3918 44.378 43.1399 44.2737 42.8773 44.2737H42.8753Z" fill="#00A87C" fill-opacity="0.5"/>
<path d="M48.7939 18.748L45.0627 14.9634L46.1431 13.8613C46.7927 13.1955 47.1563 12.3021 47.1563 11.3719C47.1563 10.4417 46.7927 9.5483 46.1431 8.88248L39.0789 1.70739C38.4174 1.06362 37.5308 0.7034 36.6078 0.7034C35.6848 0.7034 34.7982 1.06362 34.1367 1.70739L30.7948 5.10085C31.1172 5.24769 31.4107 5.45127 31.6612 5.70191L42.2565 16.4606C42.4831 16.69 42.6707 16.9549 42.812 17.2448L43.6725 16.3705L47.3828 20.1333C47.6692 20.4273 47.8295 20.8215 47.8295 21.2319C47.8295 21.6424 47.6692 22.0366 47.3828 22.3306L33.2544 36.6837C33.1549 36.7744 33.0749 36.8844 33.0193 37.007C32.9637 37.1296 32.9336 37.2623 32.9311 37.3969C32.9285 37.5316 32.9534 37.6653 33.0043 37.79C33.0551 37.9146 33.1309 38.0276 33.2269 38.122C33.3229 38.2164 33.4372 38.2902 33.5627 38.339C33.6882 38.3877 33.8223 38.4103 33.9569 38.4055C34.0915 38.4006 34.2236 38.3683 34.3453 38.3107C34.4669 38.253 34.5756 38.1711 34.6645 38.07L48.7949 23.7218C49.4428 23.0561 49.8053 22.1637 49.8052 21.2347C49.805 20.3057 49.4421 19.4134 48.7939 18.748Z" fill="#00A87C" fill-opacity="0.5"/>
<path d="M13.1442 44.7787C16.2849 43.4687 19.297 41.8692 22.1413 40.001C30.1068 34.7116 36.6013 27.4891 41.0177 19.0084C41.1148 18.8226 41.1504 18.6109 41.1194 18.4036C41.0885 18.1963 40.9925 18.0041 40.8454 17.8548L30.2501 7.09218C30.0997 6.93957 29.9038 6.83988 29.6918 6.8081C29.4799 6.77632 29.2634 6.81415 29.0747 6.91593C17.509 13.1201 8.49871 23.2007 3.62625 35.3875C4.88884 35.2958 6.15647 35.4748 7.3443 35.9125C8.53213 36.3502 9.61276 37.0366 10.5139 37.9257C11.415 38.8149 12.1158 39.8862 12.5694 41.0681C13.0231 42.2499 13.219 43.515 13.1442 44.7787Z" fill="#00A87C" fill-opacity="0.5"/>
</svg>
