<svg width="23" height="21" viewBox="0 0 23 21" fill="none" xmlns="http://www.w3.org/2000/svg">
<path d="M22.092 1.37834C21.8774 1.32451 17.6114 -1.4475 12.5815 1.0241L11.5 1.55546L10.4185 1.02303C5.48222 -1.39959 1.04541 1.34604 0.907959 1.37834C0.634568 1.5118 0.404632 1.71782 0.244171 1.97308C0.0837107 2.22835 -0.000868023 2.52268 6.71697e-06 2.82276V19.2104C0.000220878 19.4385 0.0555175 19.6633 0.161349 19.8663C0.26718 20.0693 0.420522 20.2448 0.608765 20.3782C0.797007 20.5115 1.01477 20.5991 1.24415 20.6336C1.47352 20.6681 1.70796 20.6486 1.92817 20.5767C6.9345 18.9363 10.7005 20.8556 11.327 20.9724C11.4393 21.0092 11.5607 21.0092 11.673 20.9724C12.4189 20.833 15.9992 18.9137 21.0718 20.5767C21.292 20.6486 21.5265 20.6681 21.7559 20.6336C21.9852 20.5991 22.203 20.5115 22.3912 20.3782C22.5795 20.2448 22.7328 20.0693 22.8387 19.8663C22.9445 19.6633 22.9998 19.4385 23 19.2104V2.82276C23.0009 2.52268 22.9163 2.22835 22.7558 1.97308C22.5954 1.71782 22.3654 1.5118 22.092 1.37834V1.37834ZM18.0714 1.16784V5.45856L17.2801 4.93958C17.1901 4.88055 17.0844 4.84905 16.9762 4.84905C16.868 4.84905 16.7622 4.88055 16.6723 4.93958L15.8809 5.45856V1.16784C16.6084 1.08009 17.344 1.08009 18.0714 1.16784V1.16784ZM13.0711 1.98722C13.6185 1.72249 14.1934 1.51654 14.7857 1.37296V6.46421C14.7857 6.56167 14.8126 6.65732 14.8635 6.74093C14.9145 6.82454 14.9876 6.89299 15.075 6.93897C15.1624 6.98495 15.2609 7.00674 15.3599 7.00201C15.4589 6.99728 15.5548 6.96622 15.6373 6.91212L16.9762 6.0346L18.3151 6.91212C18.3976 6.96622 18.4935 6.99728 18.5925 7.00201C18.6915 7.00674 18.79 6.98495 18.8774 6.93897C18.9648 6.89299 19.0379 6.82454 19.0888 6.74093C19.1398 6.65732 19.1667 6.56167 19.1667 6.46421V1.37296C20.0163 1.59515 20.8343 1.92067 21.6019 2.342C21.6928 2.38664 21.7692 2.45524 21.8227 2.54014C21.8762 2.62504 21.9046 2.72289 21.9048 2.82276V17.023L21.4179 16.8615C18.363 15.8904 15.066 15.9472 12.0476 17.023V2.49059L13.0711 1.98722ZM1.09524 2.82276C1.0953 2.7228 1.12366 2.62484 1.17714 2.53983C1.23063 2.45483 1.30713 2.38614 1.39808 2.34146C1.62424 2.2844 5.42965 -0.22435 9.92888 1.98722L10.9524 2.49059V17.023C7.93797 15.926 4.63375 15.8691 1.58208 16.8615L1.09524 17.023V2.82276ZM21.4179 19.5549C16.2495 17.8629 11.8472 19.8311 11.5 19.8941C8.33586 18.6453 4.82672 18.5255 1.58208 19.5555C1.52647 19.5737 1.46723 19.5787 1.40926 19.5701C1.3513 19.5614 1.29626 19.5393 1.2487 19.5056C1.20114 19.4719 1.16242 19.4275 1.13573 19.3762C1.10905 19.3248 1.09517 19.268 1.09524 19.2104V18.1579L1.92817 17.8849C6.93396 16.244 10.6934 18.1622 11.327 18.2806C11.4385 18.3175 11.5593 18.3175 11.6709 18.2806C12.4167 18.1412 15.997 16.2219 21.0696 17.8849L21.9048 18.1579V19.2104C21.9049 19.268 21.891 19.3248 21.8643 19.3762C21.8376 19.4275 21.7989 19.4718 21.7513 19.5055C21.7037 19.5392 21.6487 19.5612 21.5907 19.5698C21.5327 19.5784 21.4735 19.5733 21.4179 19.5549V19.5549Z" fill="#151A6A"/>
</svg>
