<svg width="165" height="44" viewBox="0 0 165 44" fill="none" xmlns="http://www.w3.org/2000/svg">
<g filter="url(#filter0_i)">
<path d="M0 4H165V44H0V4Z" fill="#F0415D"/>
<rect width="165" height="40" fill="#FF5F79"/>
<path d="M12.1604 13.3209C12.8013 13.3209 13.3209 12.8014 13.3209 12.1605C13.3209 11.5196 12.8013 11 12.1604 11C11.5195 11 11 11.5196 11 12.1605C11 12.8014 11.5195 13.3209 12.1604 13.3209Z" fill="white"/>
<path d="M15.173 13.3209C15.8138 13.3209 16.3334 12.8013 16.3334 12.1604C16.3334 11.5195 15.8138 11 15.173 11C14.5321 11 14.0125 11.5195 14.0125 12.1604C14.0125 12.8013 14.5321 13.3209 15.173 13.3209Z" fill="white"/>
<path d="M12.1604 16.3331C12.8013 16.3331 13.3209 15.8135 13.3209 15.1726C13.3209 14.5317 12.8013 14.0122 12.1604 14.0122C11.5195 14.0122 11 14.5317 11 15.1726C11 15.8135 11.5195 16.3331 12.1604 16.3331Z" fill="white"/>
<path d="M15.173 16.3331C15.8138 16.3331 16.3334 15.8135 16.3334 15.1726C16.3334 14.5317 15.8138 14.0122 15.173 14.0122C14.5321 14.0122 14.0125 14.5317 14.0125 15.1726C14.0125 15.8135 14.5321 16.3331 15.173 16.3331Z" fill="white"/>
<path d="M18.1601 16.3331C18.8009 16.3331 19.3205 15.8135 19.3205 15.1726C19.3205 14.5317 18.8009 14.0122 18.1601 14.0122C17.5192 14.0122 16.9996 14.5317 16.9996 15.1726C16.9996 15.8135 17.5192 16.3331 18.1601 16.3331Z" fill="white"/>
<path d="M12.1604 19.3452C12.8013 19.3452 13.3209 18.8257 13.3209 18.1848C13.3209 17.5439 12.8013 17.0244 12.1604 17.0244C11.5195 17.0244 11 17.5439 11 18.1848C11 18.8257 11.5195 19.3452 12.1604 19.3452Z" fill="white"/>
<path d="M15.173 19.3452C15.8138 19.3452 16.3334 18.8257 16.3334 18.1848C16.3334 17.5439 15.8138 17.0244 15.173 17.0244C14.5321 17.0244 14.0125 17.5439 14.0125 18.1848C14.0125 18.8257 14.5321 19.3452 15.173 19.3452Z" fill="white"/>
<path d="M18.1601 19.3452C18.8009 19.3452 19.3205 18.8257 19.3205 18.1848C19.3205 17.5439 18.8009 17.0244 18.1601 17.0244C17.5192 17.0244 16.9996 17.5439 16.9996 18.1848C16.9996 18.8257 17.5192 19.3452 18.1601 19.3452Z" fill="white"/>
<path d="M21.1726 19.3452C21.8135 19.3452 22.333 18.8257 22.333 18.1848C22.333 17.5439 21.8135 17.0244 21.1726 17.0244C20.5317 17.0244 20.0121 17.5439 20.0121 18.1848C20.0121 18.8257 20.5317 19.3452 21.1726 19.3452Z" fill="white"/>
<path d="M12.1604 25.3696C12.8013 25.3696 13.3209 24.85 13.3209 24.2091C13.3209 23.5682 12.8013 23.0487 12.1604 23.0487C11.5195 23.0487 11 23.5682 11 24.2091C11 24.85 11.5195 25.3696 12.1604 25.3696Z" fill="white"/>
<path d="M15.173 25.3696C15.8138 25.3696 16.3334 24.85 16.3334 24.2091C16.3334 23.5682 15.8138 23.0487 15.173 23.0487C14.5321 23.0487 14.0125 23.5682 14.0125 24.2091C14.0125 24.85 14.5321 25.3696 15.173 25.3696Z" fill="white"/>
<path d="M18.1601 25.3696C18.8009 25.3696 19.3205 24.85 19.3205 24.2091C19.3205 23.5682 18.8009 23.0487 18.1601 23.0487C17.5192 23.0487 16.9996 23.5682 16.9996 24.2091C16.9996 24.85 17.5192 25.3696 18.1601 25.3696Z" fill="white"/>
<path d="M21.1726 25.3696C21.8135 25.3696 22.333 24.85 22.333 24.2091C22.333 23.5682 21.8135 23.0487 21.1726 23.0487C20.5317 23.0487 20.0121 23.5682 20.0121 24.2091C20.0121 24.85 20.5317 25.3696 21.1726 25.3696Z" fill="white"/>
<path d="M12.1604 28.3571C12.8013 28.3571 13.3209 27.8376 13.3209 27.1967C13.3209 26.5558 12.8013 26.0363 12.1604 26.0363C11.5195 26.0363 11 26.5558 11 27.1967C11 27.8376 11.5195 28.3571 12.1604 28.3571Z" fill="white"/>
<path d="M15.173 28.3571C15.8138 28.3571 16.3334 27.8376 16.3334 27.1967C16.3334 26.5558 15.8138 26.0363 15.173 26.0363C14.5321 26.0363 14.0125 26.5558 14.0125 27.1967C14.0125 27.8376 14.5321 28.3571 15.173 28.3571Z" fill="white"/>
<path d="M18.1601 28.3571C18.8009 28.3571 19.3205 27.8376 19.3205 27.1967C19.3205 26.5558 18.8009 26.0363 18.1601 26.0363C17.5192 26.0363 16.9996 26.5558 16.9996 27.1967C16.9996 27.8376 17.5192 28.3571 18.1601 28.3571Z" fill="white"/>
<path d="M12.1604 31.3693C12.8013 31.3693 13.3209 30.8498 13.3209 30.2089C13.3209 29.568 12.8013 29.0485 12.1604 29.0485C11.5195 29.0485 11 29.568 11 30.2089C11 30.8498 11.5195 31.3693 12.1604 31.3693Z" fill="white"/>
<path d="M15.173 31.3693C15.8138 31.3693 16.3334 30.8498 16.3334 30.2089C16.3334 29.568 15.8138 29.0485 15.173 29.0485C14.5321 29.0485 14.0125 29.568 14.0125 30.2089C14.0125 30.8498 14.5321 31.3693 15.173 31.3693Z" fill="white"/>
</g>
<defs>
<filter id="filter0_i" x="0" y="0" width="165" height="50" filterUnits="userSpaceOnUse" color-interpolation-filters="sRGB">
<feFlood flood-opacity="0" result="BackgroundImageFix"/>
<feBlend mode="normal" in="SourceGraphic" in2="BackgroundImageFix" result="shape"/>
<feColorMatrix in="SourceAlpha" type="matrix" values="0 0 0 0 0 0 0 0 0 0 0 0 0 0 0 0 0 0 127 0" result="hardAlpha"/>
<feOffset dy="6"/>
<feGaussianBlur stdDeviation="3"/>
<feComposite in2="hardAlpha" operator="arithmetic" k2="-1" k3="1"/>
<feColorMatrix type="matrix" values="0 0 0 0 0 0 0 0 0 0 0 0 0 0 0 0 0 0 0.25 0"/>
<feBlend mode="normal" in2="shape" result="effect1_innerShadow"/>
</filter>
</defs>
</svg>
