<svg width="27" height="27" viewBox="0 0 27 27" fill="none" xmlns="http://www.w3.org/2000/svg">
<path d="M11.8087 23.6779C12.0576 23.7131 12.3114 23.69 12.5499 23.6106C12.7885 23.5311 13.0053 23.3974 13.1835 23.22L26.5253 9.87822C26.6764 9.72815 26.7961 9.54959 26.8776 9.35288C26.9591 9.15618 27.0007 8.94525 27 8.73234V1.62C27 1.19035 26.8293 0.778296 26.5255 0.474487C26.2217 0.170678 25.8096 0 25.38 0H18.2795C18.0617 0.000422041 17.8462 0.044563 17.6457 0.129807C17.4453 0.215051 17.264 0.339663 17.1126 0.49626L3.3911 14.7452C3.33344 14.8051 3.29039 14.8775 3.26529 14.9567C3.24018 15.036 3.23371 15.1199 3.24638 15.2021L4.08122 20.628L20.9946 3.71466C21.0444 3.66308 21.104 3.62195 21.1699 3.59364C21.2358 3.56534 21.3067 3.55045 21.3784 3.54982C21.4501 3.5492 21.5212 3.56286 21.5875 3.59002C21.6539 3.61717 21.7142 3.65726 21.7649 3.70797C21.8156 3.75867 21.8557 3.81896 21.8828 3.88532C21.91 3.95169 21.9237 4.0228 21.923 4.0945C21.9224 4.1662 21.9075 4.23706 21.8792 4.30294C21.8509 4.36882 21.8098 4.42841 21.7582 4.47822L0.158106 26.0782C0.0826083 26.1537 0.0311966 26.2499 0.01037 26.3547C-0.0104565 26.4594 0.000236749 26.568 0.0410987 26.6666C0.0819607 26.7653 0.151157 26.8496 0.239939 26.909C0.32872 26.9683 0.433101 27 0.539887 27H24.3C25.0161 27 25.7028 26.7155 26.2092 26.2092C26.7155 25.7028 27 25.0161 27 24.3C27 23.5839 26.7155 22.8972 26.2092 22.3908C25.7028 21.8845 25.0161 21.6 24.3 21.6H22.68C22.2503 21.6 21.8383 21.4293 21.5345 21.1255C21.2306 20.8217 21.06 20.4097 21.06 19.98C21.06 19.5503 21.2306 19.1383 21.5345 18.8345C21.8383 18.5307 22.2503 18.36 22.68 18.36H26.46C26.6032 18.36 26.7406 18.3031 26.8418 18.2018C26.9431 18.1006 27 17.9632 27 17.82C27 17.6768 26.9431 17.5394 26.8418 17.4382C26.7406 17.3369 26.6032 17.28 26.46 17.28H22.68C21.9639 17.28 21.2771 17.5645 20.7708 18.0708C20.2644 18.5772 19.98 19.2639 19.98 19.98C19.98 20.6961 20.2644 21.3828 20.7708 21.8892C21.2771 22.3955 21.9639 22.68 22.68 22.68H24.3C24.7296 22.68 25.1417 22.8507 25.4455 23.1545C25.7493 23.4583 25.92 23.8703 25.92 24.3C25.92 24.7297 25.7493 25.1417 25.4455 25.4455C25.1417 25.7493 24.7296 25.92 24.3 25.92H1.84345L5.05107 22.7124L11.8087 23.6779Z" fill="#00A87C" fill-opacity="0.5"/>
</svg>
