<svg width="31" height="45" viewBox="0 0 31 45" fill="none" xmlns="http://www.w3.org/2000/svg">
<path d="M22.5 26.0999H8.09999C5.95255 26.1025 3.8938 26.9567 2.37533 28.4752C0.856851 29.9937 0.00261986 32.0524 0 34.1998V42.2998C0 43.0159 0.284463 43.7027 0.790811 44.209C1.29716 44.7154 1.98391 44.9998 2.7 44.9998H27.9C28.6161 44.9998 29.3028 44.7154 29.8092 44.209C30.3155 43.7027 30.6 43.0159 30.6 42.2998V34.1998C30.5974 32.0524 29.7431 29.9937 28.2247 28.4752C26.7062 26.9567 24.6474 26.1025 22.5 26.0999ZM28.8 42.2998C28.8 42.5385 28.7052 42.7675 28.5364 42.9362C28.3676 43.105 28.1387 43.1998 27.9 43.1998H2.7C2.4613 43.1998 2.23239 43.105 2.0636 42.9362C1.89482 42.7675 1.8 42.5385 1.8 42.2998V34.1998C1.8019 32.5296 2.46626 30.9282 3.64733 29.7472C4.8284 28.5661 6.42972 27.9018 8.09999 27.8999H22.5C24.1703 27.9018 25.7716 28.5661 26.9527 29.7472C28.1337 30.9282 28.7981 32.5296 28.8 34.1998V42.2998Z" fill="#151A6A"/>
<path d="M15.3 23.3999C17.8293 23.397 20.2542 22.391 22.0426 20.6025C23.8311 18.814 24.8371 16.3892 24.84 13.8599V9.53987C24.84 7.00971 23.8349 4.58317 22.0458 2.79408C20.2567 1.00498 17.8302 -0.00012207 15.3 -0.00012207C12.7698 -0.00012207 10.3433 1.00498 8.55421 2.79408C6.76511 4.58317 5.76001 7.00971 5.76001 9.53987V13.8599C5.76287 16.3892 6.76889 18.814 8.55737 20.6025C10.3458 22.391 12.7707 23.397 15.3 23.3999ZM7.56001 9.53987C7.56001 7.4871 8.37547 5.5184 9.827 4.06687C11.2785 2.61534 13.2472 1.79988 15.3 1.79988C17.3528 1.79988 19.3215 2.61534 20.773 4.06687C22.2245 5.5184 23.04 7.4871 23.04 9.53987V13.8599C23.04 15.9126 22.2245 17.8813 20.773 19.3329C19.3215 20.7844 17.3528 21.5999 15.3 21.5999C13.2472 21.5999 11.2785 20.7844 9.827 19.3329C8.37547 17.8813 7.56001 15.9126 7.56001 13.8599V9.53987Z" fill="#151A6A"/>
<path d="M15.3 18.8998C16.7317 18.8984 18.1044 18.329 19.1168 17.3166C20.1292 16.3043 20.6986 14.9316 20.7 13.4999C20.7 13.2612 20.6052 13.0322 20.4364 12.8635C20.2676 12.6947 20.0387 12.5999 19.8 12.5999C19.5613 12.5999 19.3324 12.6947 19.1636 12.8635C18.9948 13.0322 18.9 13.2612 18.9 13.4999C18.9 14.4546 18.5207 15.3703 17.8456 16.0454C17.1704 16.7206 16.2548 17.0999 15.3 17.0999C14.3452 17.0999 13.4295 16.7206 12.7544 16.0454C12.0793 15.3703 11.7 14.4546 11.7 13.4999C11.7 13.2612 11.6052 13.0322 11.4364 12.8635C11.2676 12.6947 11.0387 12.5999 10.8 12.5999C10.5613 12.5999 10.3324 12.6947 10.1636 12.8635C9.99482 13.0322 9.89999 13.2612 9.89999 13.4999C9.90142 14.9316 10.4708 16.3043 11.4832 17.3166C12.4956 18.329 13.8683 18.8984 15.3 18.8998Z" fill="#151A6A"/>
</svg>
