<svg width="50" height="50" viewBox="0 0 50 50" fill="none" xmlns="http://www.w3.org/2000/svg">
<path d="M49.2673 13.2099H44.4687C43.4665 9.226 41.0972 5.88939 37.5868 3.53412C34.236 1.28609 29.9535 0.0480042 25.5282 0.0480042C21.3255 0.0480042 17.7594 1.14907 14.9291 3.32094C12.7979 4.95629 11.0716 7.21282 9.7983 10.0278C9.6317 10.3964 9.79527 10.8305 10.1638 10.9972C10.5326 11.1638 10.9665 11.0001 11.1332 10.6317C13.8698 4.58099 18.7129 1.51314 25.5282 1.51314C29.666 1.51314 33.6586 2.66294 36.7705 4.75082C39.8676 6.82884 41.9907 9.74025 42.9534 13.21H42.2427C41.8381 13.21 41.5102 13.5378 41.5102 13.9425V15.2763H38.8764C37.0596 9.61496 31.9227 5.38548 25.7105 4.98529C25.5075 4.97103 25.3102 5.04349 25.1624 5.18197C25.0146 5.32035 24.931 5.51371 24.931 5.71634V7.7842C18.5076 8.01018 13.3515 13.3053 13.3515 19.7828C13.3515 20.0661 13.3627 20.348 13.3825 20.6283H8.48962V19.2945C8.48962 19.1164 8.42594 18.9531 8.32018 18.8261C8.77594 17.6667 9.0859 16.8425 9.24225 16.3731C9.3277 16.1167 9.41764 15.779 9.53151 15.3517C9.68199 14.7867 9.8693 14.0837 10.1212 13.2926C10.244 12.9072 10.031 12.4951 9.64547 12.3724C9.25992 12.2493 8.84801 12.4625 8.72526 12.8482C8.46276 13.6727 8.27048 14.3945 8.11589 14.9745C8.01276 15.3616 7.9237 15.696 7.85241 15.9099C7.69196 16.3913 7.35456 17.2832 6.84958 18.5619H0.732517C0.328026 18.5619 0 18.8897 0 19.2944V23.4271C0 23.8317 0.327928 24.1596 0.732517 24.1596H4.58367C3.96356 25.6689 3.38173 27.0728 2.97255 28.0568C2.73075 28.6385 2.79511 29.2987 3.14471 29.8227C3.49452 30.347 4.07977 30.66 4.71033 30.66H7.01482C7.35144 32.3961 8.35426 37.3894 9.13659 39.455C9.87106 41.3937 11.6073 42.5236 14.1576 42.7226C15.2259 42.8059 16.2171 42.7079 16.8657 42.6098L18.0605 49.351C18.1225 49.7008 18.4265 49.9557 18.7818 49.9557H38.7416C38.9554 49.9557 39.1585 49.8624 39.2977 49.7001C39.4369 49.5378 39.4982 49.3228 39.4656 49.1114L38.4216 42.3551C38.3599 41.9555 37.9863 41.6819 37.5858 41.743C37.1861 41.8048 36.912 42.1789 36.9737 42.5788L37.8872 48.4908H19.3958L18.1792 41.6268C18.144 41.4275 18.0278 41.2518 17.8583 41.141C17.6888 41.0305 17.481 40.9951 17.2846 41.0428C17.2297 41.0563 11.7953 42.3375 10.5068 38.936C9.61813 36.59 8.35338 29.8605 8.34069 29.7928C8.27585 29.4463 7.97331 29.1951 7.62067 29.1951H4.71033C4.50887 29.1951 4.40057 29.0654 4.36336 29.0096C4.32625 28.954 4.24823 28.8046 4.32537 28.6193C4.78484 27.5138 5.46228 25.8791 6.16726 24.1597H7.7571C8.16169 24.1597 8.48962 23.8319 8.48962 23.4272V22.0935H13.5774C14.1748 25.1369 15.9362 27.8676 18.5394 29.6669C18.8723 29.8969 19.3283 29.8136 19.5585 29.4809C19.7884 29.1481 19.7052 28.6918 19.3725 28.4618C17.167 26.9375 15.6495 24.6521 15.0741 22.0935H21.2492C21.6538 22.0935 21.9818 21.7657 21.9818 21.361C21.9818 20.9563 21.6539 20.6285 21.2492 20.6285H14.8518C14.8292 20.3485 14.8167 20.0665 14.8167 19.783C14.8167 14.1134 19.3158 9.47482 24.9312 9.24943V19.2748C24.9312 19.5303 25.0644 19.7676 25.2827 19.9005L28.6056 21.9237L34.2906 25.3854C32.3674 28.449 29.0056 30.3249 25.3587 30.3249C24.152 30.3249 22.9687 30.123 21.842 29.7245C21.4606 29.5892 21.042 29.7893 20.9072 30.1707C20.7723 30.5521 20.9721 30.9706 21.3534 31.1055C22.6373 31.5597 23.985 31.79 25.3586 31.79C29.5192 31.79 33.3529 29.6461 35.5411 26.147L36.865 26.9533C36.9808 27.0238 37.1127 27.0601 37.2458 27.0601C37.3115 27.0601 37.3774 27.0513 37.4417 27.0334C37.6368 26.9793 37.8007 26.8469 37.8947 26.6676C38.9982 24.561 39.5816 22.1834 39.5816 19.7922C39.5816 18.7482 39.4715 17.7279 39.2639 16.7418H41.5101V18.0755C41.5101 18.4801 41.8379 18.808 42.2426 18.808H43.5192C43.2352 24.208 40.8052 30.2594 36.285 36.8104C36.1787 36.9644 36.1354 37.1533 36.164 37.3383L36.5231 39.6622C36.579 40.024 36.891 40.2829 37.2461 40.2829C37.2833 40.2829 37.3209 40.2801 37.3588 40.2742C37.7586 40.2124 38.0328 39.8383 37.9709 39.4384L37.6562 37.4016C42.2472 30.6856 44.7093 24.4364 44.9862 18.808H49.2673C49.6718 18.808 49.9998 18.4802 49.9998 18.0755V13.9429C49.9998 13.5377 49.672 13.2099 49.2673 13.2099ZM7.02468 22.6945H5.67117C5.66931 22.6945 5.66736 22.6945 5.66551 22.6945H1.46503V20.0268H7.02468V22.6945ZM36.9396 25.283L35.6672 24.5082C35.6668 24.5079 35.6664 24.5075 35.6659 24.5072L29.9009 20.9968L26.3962 18.8629V6.52034C31.4801 7.14798 35.6563 10.6344 37.3295 15.2763H32.2564C31.8518 15.2763 31.5239 15.6041 31.5239 16.0088C31.5239 16.4134 31.8517 16.7413 32.2564 16.7413H37.764C37.9946 17.7228 38.1167 18.7442 38.1167 19.7917C38.1167 21.6842 37.7114 23.5671 36.9396 25.283ZM48.5349 17.3425H42.9752V14.6749H48.5349V17.3425Z" fill="#061058"/>
</svg>
