<svg width="50" height="45" viewBox="0 0 50 45" fill="none" xmlns="http://www.w3.org/2000/svg">
<path d="M46.5401 -0.00012207H2.97064C2.18278 -0.00012207 1.42718 0.312855 0.870081 0.869959C0.312977 1.42706 0 2.18266 0 2.97052V30.6965C0 31.4844 0.312977 32.24 0.870081 32.7971C1.42718 33.3542 2.18278 33.6672 2.97064 33.6672H19.626L17.9754 42.5791H16.8336C16.571 42.5791 16.3192 42.6834 16.1334 42.8691C15.9477 43.0548 15.8434 43.3067 15.8434 43.5693C15.8434 43.8319 15.9477 44.0838 16.1334 44.2695C16.3192 44.4552 16.571 44.5595 16.8336 44.5595H32.6771C32.9397 44.5595 33.1915 44.4552 33.3772 44.2695C33.563 44.0838 33.6673 43.8319 33.6673 43.5693C33.6673 43.3067 33.563 43.0548 33.3772 42.8691C33.1915 42.6834 32.9397 42.5791 32.6771 42.5791H31.5353L29.8847 33.6672H46.5401C47.3279 33.6672 48.0835 33.3542 48.6406 32.7971C49.1977 32.24 49.5107 31.4844 49.5107 30.6965V2.97052C49.5107 2.18266 49.1977 1.42706 48.6406 0.869959C48.0835 0.312855 47.3279 -0.00012207 46.5401 -0.00012207ZM29.5272 42.5791H19.9835L21.6332 33.6672H27.8775L29.5272 42.5791ZM47.5303 30.6965C47.5303 30.9591 47.4259 31.211 47.2402 31.3967C47.0545 31.5824 46.8027 31.6867 46.5401 31.6867H2.97064C2.70802 31.6867 2.45616 31.5824 2.27045 31.3967C2.08475 31.211 1.98043 30.9591 1.98043 30.6965V2.97052C1.98043 2.7079 2.08475 2.45603 2.27045 2.27033C2.45616 2.08463 2.70802 1.98031 2.97064 1.98031H46.5401C46.8027 1.98031 47.0545 2.08463 47.2402 2.27033C47.4259 2.45603 47.5303 2.7079 47.5303 2.97052V30.6965Z" fill="#151A6A"/>
<path d="M42.5792 3.96072H6.9315C6.14364 3.96072 5.38805 4.2737 4.83094 4.8308C4.27384 5.38791 3.96086 6.1435 3.96086 6.93137V22.7748C3.96086 23.5627 4.27384 24.3182 4.83094 24.8753C5.38805 25.4325 6.14364 25.7454 6.9315 25.7454H42.5792C43.3671 25.7454 44.1227 25.4325 44.6798 24.8753C45.2369 24.3182 45.5498 23.5627 45.5498 22.7748V6.93137C45.5498 6.1435 45.2369 5.38791 44.6798 4.8308C44.1227 4.2737 43.3671 3.96072 42.5792 3.96072ZM43.5694 22.7748C43.5694 23.0374 43.4651 23.2893 43.2794 23.475C43.0937 23.6607 42.8418 23.765 42.5792 23.765H6.9315C6.66888 23.765 6.41702 23.6607 6.23132 23.475C6.04561 23.2893 5.94129 23.0374 5.94129 22.7748V6.93137C5.94129 6.66874 6.04561 6.41688 6.23132 6.23118C6.41702 6.04548 6.66888 5.94115 6.9315 5.94115H42.5792C42.8418 5.94115 43.0937 6.04548 43.2794 6.23118C43.4651 6.41688 43.5694 6.66874 43.5694 6.93137V22.7748Z" fill="#151A6A"/>
<path d="M26.7358 27.7259H22.7749C22.5123 27.7259 22.2604 27.8302 22.0747 28.0159C21.889 28.2016 21.7847 28.4535 21.7847 28.7161C21.7847 28.9787 21.889 29.2306 22.0747 29.4163C22.2604 29.602 22.5123 29.7063 22.7749 29.7063H26.7358C26.9984 29.7063 27.2503 29.602 27.436 29.4163C27.6217 29.2306 27.726 28.9787 27.726 28.7161C27.726 28.4535 27.6217 28.2016 27.436 28.0159C27.2503 27.8302 26.9984 27.7259 26.7358 27.7259Z" fill="#151A6A"/>
</svg>
