<svg width="60" height="43" viewBox="0 0 60 43" fill="none" xmlns="http://www.w3.org/2000/svg">
<path d="M57.8685 11.557L32.6048 0.572992C31.7322 0.195014 30.7913 0 29.8403 0C28.8893 0 27.9484 0.195014 27.0758 0.572992L1.80973 11.5546C1.27183 11.7894 0.814114 12.176 0.492665 12.667C0.171216 13.1581 0 13.7322 0 14.3191C0 14.906 0.171216 15.4802 0.492665 15.9712C0.814114 16.4622 1.27183 16.8488 1.80973 17.0836L9.55057 20.4497V35.8097C9.55057 36.0121 9.60206 36.2112 9.70021 36.3883C9.79835 36.5654 9.93991 36.7146 10.1116 36.8219C15.9723 40.6995 22.8165 42.8273 29.8427 42.9561C36.8696 42.8268 43.7142 40.6982 49.575 36.8195C49.7461 36.7123 49.8872 36.5634 49.9851 36.3868C50.083 36.2102 50.1345 36.0116 50.1348 35.8097V20.4497L57.8733 17.086C58.411 16.8508 58.8684 16.4638 59.1894 15.9725C59.5104 15.4811 59.6811 14.9068 59.6806 14.3199C59.6801 13.733 59.5084 13.159 59.1865 12.6683C58.8646 12.1775 58.4066 11.7913 57.8685 11.557ZM47.7475 35.14C35.7071 42.444 23.9795 42.444 11.9379 35.14V21.4858L15.5188 23.0376V31.035C15.5188 31.3516 15.6446 31.6552 15.8685 31.8791C16.0923 32.1029 16.3959 32.2287 16.7125 32.2287C17.0291 32.2287 17.3327 32.1029 17.5565 31.8791C17.7804 31.6552 17.9062 31.3516 17.9062 31.035V24.082L27.0782 28.07C27.9503 28.4499 28.8914 28.6459 29.8427 28.6459C30.794 28.6459 31.7351 28.4499 32.6072 28.07L47.7475 21.4858V35.14ZM56.9172 14.8968L31.6511 25.8785C31.079 26.1259 30.4624 26.2535 29.8391 26.2535C29.2159 26.2535 28.5992 26.1259 28.0271 25.8785L18.6307 21.7926L30.4109 15.3671C30.6847 15.2135 30.887 14.9581 30.9738 14.6563C31.0607 14.3545 31.0251 14.0307 30.8748 13.755C30.7246 13.4793 30.4717 13.2739 30.171 13.1833C29.8704 13.0927 29.5461 13.1242 29.2685 13.2711C15.3171 20.8997 16.13 20.396 15.8996 20.6061L2.76346 14.8968C2.65155 14.8479 2.55633 14.7675 2.48946 14.6653C2.42259 14.5631 2.38698 14.4436 2.38698 14.3215C2.38698 14.1994 2.42259 14.0799 2.48946 13.9777C2.55633 13.8755 2.65155 13.7951 2.76346 13.7462L28.0295 2.76454C28.6011 2.51546 29.218 2.3869 29.8415 2.3869C30.465 2.3869 31.0819 2.51546 31.6535 2.76454L56.9172 13.7462C57.0291 13.7951 57.1243 13.8755 57.1912 13.9777C57.258 14.0799 57.2936 14.1994 57.2936 14.3215C57.2936 14.4436 57.258 14.5631 57.1912 14.6653C57.1243 14.7675 57.0291 14.8479 56.9172 14.8968Z" fill="#151A6A"/>
</svg>
