<svg width="368" height="361" viewBox="0 0 368 361" fill="none" xmlns="http://www.w3.org/2000/svg">
<g clip-path="url(#clip0)">
<path d="M41.153 66.1988L27.3801 96.919L71.8626 116.855L85.6355 86.1344L41.153 66.1988Z" fill="#F99D41"/>
<path d="M41.1558 66.1771L40.2646 68.165L53.6613 97.8304L84.734 88.0955L85.6252 86.1076L54.5194 95.9402L41.1558 66.1771Z" fill="#F88800"/>
<path d="M60.5544 93.9761L70.5895 116.262L71.8442 116.823L72.1908 116.041L61.9782 93.3133L60.5544 93.9761Z" fill="#F88800"/>
<path d="M27.6883 96.2079L27.3748 96.8922L28.7925 97.5356L52.0809 90.1814L51.6145 88.6607L27.6883 96.2079Z" fill="#F88800"/>
<path d="M85.6252 86.1076L54.5194 95.9402L41.1558 66.1771L85.6252 86.1076Z" fill="#FDCC50"/>
</g>
<path d="M43.2203 218.381C27.1658 192.213 35.7421 157.622 62.5895 142.675C78.0424 134.016 94.4004 119.756 109.558 96.847C157.106 24.6184 207.457 45.113 226.575 82.7756C241.95 112.997 320.943 109.232 330.246 148.107C342.623 199.642 265.261 208.742 250.671 257.817C246.571 271.596 234.066 285.251 217.594 296.648C169.423 330.191 102.836 315.551 72.1917 265.602L43.2203 218.381Z" fill="#E4E4E4" fill-opacity="0.5"/>
<path d="M278.16 50.2716L255.791 32.9706L230.745 65.3632L253.115 82.6641L278.16 50.2716Z" fill="#F99D41"/>
<path d="M278.178 50.2781L276.73 49.1586L249.867 54.2506L251.691 81.5414L253.139 82.661L251.241 55.3238L278.178 50.2781Z" fill="#F88800"/>
<path d="M251.655 60.6388L231.48 64.4404L230.775 65.3544L231.345 65.7916L251.916 61.932L251.655 60.6388Z" fill="#F88800"/>
<path d="M256.311 33.3624L255.814 32.9715L255.009 34.0023L256.424 54.4677L257.757 54.3867L256.311 33.3624Z" fill="#F88800"/>
<path d="M253.139 82.661L251.241 55.3238L278.178 50.2782L253.139 82.661Z" fill="#FDCC50"/>
<g clip-path="url(#clip1)">
<path d="M217.206 318.348H160.494V354.988H217.206V318.348Z" fill="#C4C4C3"/>
<path d="M217.206 318.348H160.494V336.668H217.206V318.348Z" fill="#C4C4C3"/>
<path d="M299.069 327.306H78.5909C76.2934 327.306 74.399 325.41 74.399 323.11V174.857C74.399 172.557 76.2934 170.661 78.5909 170.661H299.069C301.367 170.661 303.261 172.557 303.261 174.857V323.11C303.261 325.45 301.367 327.306 299.069 327.306Z" fill="#DDDDDD"/>
<path d="M188.83 318.873C191.279 318.873 193.264 316.885 193.264 314.434C193.264 311.983 191.279 309.995 188.83 309.995C186.381 309.995 184.396 311.983 184.396 314.434C184.396 316.885 186.381 318.873 188.83 318.873Z" fill="#C4C4C3"/>
<path d="M303.261 301.36V176.673C303.261 173.364 300.681 170.62 297.537 170.62H80.1226C76.9786 170.62 74.399 173.324 74.399 176.673V301.36H303.261Z" fill="#322D5F"/>
<path d="M293.87 178.771H83.8308V291.998H293.87V178.771Z" fill="white"/>
<path d="M231.958 360.193H145.702V353.495C145.702 352.526 146.468 351.759 147.435 351.759H230.185C231.152 351.759 231.918 352.526 231.918 353.495V360.193H231.958Z" fill="#DDDDDD"/>
<path opacity="0.35" d="M84.8384 264.075L265.373 178.771H84.8384V264.075Z" fill="#CCCCCC"/>
<path opacity="0.5" d="M113.295 170.741C107.692 175.664 80.0017 206.211 75.4067 220.132C75.4067 212.142 75.4067 204.435 75.4067 204.435C75.4067 204.435 97.253 172.476 113.295 170.741Z" fill="#4C7A68"/>
<path d="M94.2703 166.545C94.2703 166.545 93.8269 166.706 93.0208 166.948C92.6177 167.11 92.1743 167.271 91.6101 167.513C91.0861 167.755 90.4815 167.997 89.8365 168.32C89.5141 168.482 89.1916 168.643 88.8289 168.804C88.5064 169.006 88.1437 169.168 87.7809 169.369C87.4181 169.571 87.0554 169.813 86.6926 170.015C86.3299 170.257 85.9671 170.459 85.6043 170.741C85.2416 170.983 84.8385 171.226 84.4757 171.508C84.113 171.79 83.7502 172.073 83.3472 172.355C82.9844 172.638 82.6216 172.961 82.2589 173.243C81.8961 173.566 81.5333 173.848 81.1706 174.171C80.8078 174.494 80.4854 174.817 80.1226 175.14C79.8002 175.462 79.4777 175.826 79.1149 176.148C78.9537 176.31 78.7925 176.471 78.6313 176.633C78.47 176.794 78.3088 176.996 78.1879 177.157C77.8654 177.52 77.5833 177.843 77.3011 178.166C76.7368 178.852 76.2129 179.538 75.6889 180.184C75.2052 180.87 74.7618 181.475 74.3587 182.08C73.9557 182.685 73.6332 183.25 73.3108 183.735C72.9883 184.219 72.7465 184.663 72.5449 185.026C72.1419 185.752 71.9 186.156 71.9 186.156C71.9 186.156 72.1016 185.712 72.5046 184.986C72.7062 184.622 72.9077 184.138 73.1898 183.654C73.472 183.17 73.8348 182.564 74.1975 181.959C74.6006 181.354 75.044 180.708 75.4873 180.022C75.971 179.336 76.495 178.65 77.0593 177.964C77.3414 177.641 77.6639 177.278 77.946 176.915C78.1073 176.754 78.2685 176.552 78.3894 176.391C78.5506 176.229 78.7119 176.068 78.8731 175.866C79.1956 175.543 79.518 175.18 79.8808 174.857C80.2435 174.534 80.566 174.212 80.9287 173.889C81.2915 173.566 81.6543 173.243 82.017 172.961C82.3798 172.678 82.7426 172.355 83.1456 172.073C83.5084 171.79 83.9115 171.508 84.2742 171.226C84.637 170.943 85.04 170.701 85.4028 170.459C85.7656 170.217 86.1686 169.975 86.5314 169.773C86.8942 169.571 87.2569 169.329 87.6197 169.127C87.9824 168.925 88.3452 168.764 88.6677 168.562C89.0304 168.401 89.3529 168.24 89.6753 168.078C90.3202 167.755 90.9651 167.554 91.4891 167.311C92.0534 167.11 92.5371 166.948 92.9402 166.827C93.7866 166.666 94.2703 166.545 94.2703 166.545Z" fill="#F0851B"/>
<path d="M56.1804 197.293L56.3416 226.306" stroke="#F9BA57" stroke-miterlimit="10"/>
<path d="M88.3854 185.107L44.1286 204.516L63.7983 160.331L108.055 140.921L88.3854 185.107Z" fill="#2FA97E"/>
<path d="M106.927 139.63L62.6697 159.039L63.7983 160.331L108.055 140.921L106.927 139.63Z" fill="#4C7A68"/>
<path d="M43 203.225L62.6697 159.039L63.7983 160.331L44.1286 204.516L43 203.225Z" fill="#4C7A68"/>
<path d="M57.4628 227.123C57.5232 226.457 57.0329 225.869 56.3678 225.808C55.7028 225.748 55.1147 226.238 55.0543 226.904C54.994 227.57 55.4842 228.159 56.1493 228.219C56.8144 228.28 57.4025 227.789 57.4628 227.123Z" fill="#F49D50"/>
<path d="M57.1691 226.62C57.2053 226.221 56.9112 225.867 56.5121 225.831C56.1131 225.795 55.7602 226.089 55.724 226.489C55.6879 226.888 55.982 227.242 56.3811 227.278C56.7801 227.314 57.1329 227.02 57.1691 226.62Z" fill="#F9BA56"/>
<path d="M60.2512 240.873C60.2512 241.559 58.5584 242.124 56.4221 242.164C54.2858 242.204 52.5526 241.72 52.5526 241.034C52.5526 240.348 53.52 236.313 55.6563 236.273C57.7925 236.273 60.2512 240.227 60.2512 240.873Z" fill="#E48E46"/>
<path d="M52.5527 241.074C52.4721 234.497 52.6333 227.436 56.4625 227.315C60.2916 227.193 60.2513 240.913 60.2513 240.913L57.8329 240.631L57.3492 238.492L57.1477 240.631C57.1477 240.631 56.7043 240.631 56.5028 240.671C56.3012 240.348 56.0997 239.985 56.0997 239.985V240.752C56.0997 240.752 55.0114 240.832 54.4471 240.913C54.165 239.743 53.8828 237.564 53.8828 237.564L53.7216 240.913C53.7216 240.953 52.8348 240.953 52.5527 241.074Z" fill="#F9BA56"/>
<path d="M113.295 170.741C97.8979 180.991 85.1206 193.5 75.2857 208.591L60.6544 193.863C68.8769 176.834 81.5736 164.245 98.6637 156.013L113.295 170.741Z" fill="#39C48E"/>
<path opacity="0.59" d="M251.467 170.62H126.193V291.998H251.467V170.62Z" fill="#322D5F"/>
<path d="M247.396 291.998H130.224V128.897C130.224 127.847 131.07 127 132.118 127H245.501C246.549 127 247.396 127.847 247.396 128.897V291.998Z" fill="#F89E32"/>
<path d="M240.745 134.505H136.915V291.998H240.745V134.505Z" fill="white"/>
<path d="M237.44 291.998V143.02C235.183 142.213 233.409 140.518 232.482 138.298H144.936C144.049 140.397 142.356 142.051 140.22 142.899V291.958" stroke="#F9BA56" stroke-width="0.5" stroke-miterlimit="10"/>
<path d="M240.745 140.235C243.906 140.235 246.469 137.67 246.469 134.505C246.469 131.341 243.906 128.775 240.745 128.775C237.584 128.775 235.022 131.341 235.022 134.505C235.022 137.67 237.584 140.235 240.745 140.235Z" fill="#F9BA56"/>
<path d="M136.995 140.235C140.157 140.235 142.719 137.67 142.719 134.505C142.719 131.341 140.157 128.775 136.995 128.775C133.834 128.775 131.272 131.341 131.272 134.505C131.272 137.67 133.834 140.235 136.995 140.235Z" fill="#F89E32"/>
<path d="M210.193 268.029C210.193 266.214 206.646 265.003 206.122 263.349C205.557 261.654 207.694 258.587 206.686 257.175C205.638 255.763 202.051 256.852 200.64 255.803C199.229 254.794 199.149 251.001 197.456 250.476C195.803 249.952 193.546 252.938 191.732 252.938C189.918 252.938 187.661 249.952 186.009 250.476C184.316 251.041 184.235 254.794 182.824 255.803C181.414 256.852 177.826 255.763 176.778 257.175C175.771 258.587 177.907 261.654 177.343 263.349C176.819 265.003 173.272 266.214 173.272 268.029C173.272 269.845 176.819 271.056 177.343 272.71C177.907 274.405 175.771 277.472 176.778 278.884C177.826 280.296 181.414 279.207 182.824 280.256C184.235 281.265 184.316 285.058 186.009 285.582C187.661 286.107 189.918 283.121 191.732 283.121C193.546 283.121 195.803 286.107 197.456 285.582C199.149 285.018 199.229 281.265 200.64 280.256C202.051 279.207 205.638 280.296 206.686 278.884C207.694 277.472 205.557 274.405 206.122 272.71C206.646 271.056 210.193 269.845 210.193 268.029Z" fill="#E4E4E4"/>
<path d="M209.064 266.456C209.064 268.272 205.517 269.482 204.993 271.137C204.429 272.831 206.565 275.898 205.557 277.31C204.509 278.723 200.922 277.633 199.511 278.682C198.101 279.691 198.02 283.484 196.327 284.009C194.675 284.533 192.417 281.547 190.604 281.547C188.79 281.547 186.533 284.533 184.88 284.009C183.187 283.444 183.106 279.691 181.696 278.682C180.285 277.633 176.698 278.723 175.65 277.31C174.642 275.898 176.778 272.831 176.214 271.137C175.69 269.482 172.143 268.272 172.143 266.456C172.143 264.64 175.69 263.429 176.214 261.775C176.778 260.08 174.642 257.013 175.65 255.601C176.698 254.189 180.285 255.278 181.696 254.229C183.106 253.22 183.187 249.427 184.88 248.903C186.533 248.378 188.79 251.364 190.604 251.364C192.417 251.364 194.675 248.378 196.327 248.903C198.02 249.468 198.101 253.22 199.511 254.229C200.922 255.278 204.509 254.189 205.557 255.601C206.565 257.013 204.429 260.08 204.993 261.775C205.517 263.429 209.064 264.64 209.064 266.456Z" fill="#F89E32"/>
<path d="M190.604 277.956C196.948 277.956 202.091 272.807 202.091 266.456C202.091 260.104 196.948 254.956 190.604 254.956C184.259 254.956 179.116 260.104 179.116 266.456C179.116 272.807 184.259 277.956 190.604 277.956Z" fill="#FFD95A"/>
<path d="M190.604 260.484L192.538 264.438L196.891 265.043L193.747 268.11L194.473 272.428L190.604 270.37L186.734 272.428L187.5 268.11L184.356 265.043L188.669 264.438L190.604 260.484Z" fill="#F89E32"/>
<path d="M227.242 177.884H151.224V181.878H227.242V177.884Z" fill="#F4D9B1"/>
<path d="M227.242 191.321H151.224V195.316H227.242V191.321Z" fill="#F4D9B1"/>
<path d="M227.242 204.798H151.224V208.793H227.242V204.798Z" fill="#F4D9B1"/>
<path d="M227.242 218.276H151.224V222.271H227.242V218.276Z" fill="#F4D9B1"/>
<path d="M212.772 231.753H165.734V235.748H212.772V231.753Z" fill="#F4D9B1"/>
<path d="M105.879 360.193H281.536" stroke="#3F320D" stroke-width="4" stroke-miterlimit="10" stroke-linecap="round"/>
<path d="M298.223 360.193H310.194" stroke="#3F320D" stroke-width="4" stroke-miterlimit="10" stroke-linecap="round"/>
<path d="M76.0919 360.193H89.3932" stroke="#3F320D" stroke-width="4" stroke-miterlimit="10" stroke-linecap="round"/>
<path d="M69.7234 179.094C66.257 183.573 63.234 188.496 60.6544 193.823L75.2857 208.551C81.3721 199.189 88.6273 190.837 96.8902 183.371C81.0093 188.94 72.827 183.533 69.7234 179.094Z" fill="#4C7A68"/>
<path d="M151.263 157.91C151.063 158.363 150.849 158.757 150.623 159.09C150.403 159.417 150.119 159.667 149.773 159.84C149.426 160.013 148.973 160.1 148.413 160.1C148.239 160.1 148.049 160.087 147.843 160.06C147.636 160.033 147.446 159.997 147.273 159.95V158.65C147.433 158.717 147.609 158.763 147.803 158.79C147.996 158.817 148.176 158.83 148.343 158.83C148.676 158.83 148.916 158.75 149.063 158.59C149.209 158.423 149.326 158.223 149.413 157.99L146.943 152.86H148.543L149.873 155.95C149.919 156.05 149.983 156.193 150.063 156.38C150.143 156.56 150.203 156.713 150.243 156.84H150.293C150.333 156.72 150.389 156.563 150.463 156.37C150.543 156.177 150.613 156.007 150.673 155.86L151.913 152.86H153.473L151.263 157.91ZM159.466 152.86V158.74H160.416V162.08H158.956V160H154.486V162.08H153.026V158.74H153.576C153.829 158.24 154.066 157.707 154.286 157.14C154.506 156.567 154.702 155.93 154.876 155.23C155.056 154.53 155.199 153.74 155.306 152.86H159.466ZM156.506 154.12C156.446 154.58 156.349 155.08 156.216 155.62C156.089 156.153 155.936 156.69 155.756 157.23C155.576 157.763 155.379 158.267 155.166 158.74H157.956V154.12H156.506ZM167.992 156.42C167.992 157.16 167.869 157.807 167.622 158.36C167.382 158.907 167.012 159.333 166.512 159.64C166.012 159.947 165.372 160.1 164.592 160.1C163.819 160.1 163.179 159.947 162.672 159.64C162.172 159.333 161.799 158.903 161.552 158.35C161.312 157.797 161.192 157.15 161.192 156.41C161.192 155.67 161.312 155.027 161.552 154.48C161.799 153.933 162.172 153.51 162.672 153.21C163.179 152.903 163.822 152.75 164.602 152.75C165.376 152.75 166.012 152.903 166.512 153.21C167.012 153.51 167.382 153.937 167.622 154.49C167.869 155.037 167.992 155.68 167.992 156.42ZM162.782 156.42C162.782 157.167 162.926 157.757 163.212 158.19C163.499 158.617 163.959 158.83 164.592 158.83C165.239 158.83 165.702 158.617 165.982 158.19C166.262 157.757 166.402 157.167 166.402 156.42C166.402 155.667 166.262 155.077 165.982 154.65C165.702 154.223 165.242 154.01 164.602 154.01C163.962 154.01 163.499 154.223 163.212 154.65C162.926 155.077 162.782 155.667 162.782 156.42ZM172.501 154.02C171.921 154.02 171.478 154.237 171.171 154.67C170.865 155.103 170.711 155.697 170.711 156.45C170.711 157.21 170.851 157.8 171.131 158.22C171.418 158.633 171.875 158.84 172.501 158.84C172.795 158.84 173.085 158.807 173.371 158.74C173.665 158.673 173.981 158.58 174.321 158.46V159.73C174.008 159.857 173.698 159.95 173.391 160.01C173.085 160.07 172.741 160.1 172.361 160.1C171.628 160.1 171.021 159.95 170.541 159.65C170.068 159.343 169.718 158.917 169.491 158.37C169.265 157.817 169.151 157.173 169.151 156.44C169.151 155.72 169.281 155.083 169.541 154.53C169.801 153.977 170.178 153.543 170.671 153.23C171.171 152.917 171.781 152.76 172.501 152.76C172.855 152.76 173.208 152.807 173.561 152.9C173.921 152.987 174.265 153.107 174.591 153.26L174.101 154.49C173.835 154.363 173.565 154.253 173.291 154.16C173.025 154.067 172.761 154.02 172.501 154.02ZM178.588 160H177.078V154.12H175.138V152.86H180.528V154.12H178.588V160ZM187.914 156.42C187.914 157.16 187.791 157.807 187.544 158.36C187.304 158.907 186.934 159.333 186.434 159.64C185.934 159.947 185.294 160.1 184.514 160.1C183.741 160.1 183.101 159.947 182.594 159.64C182.094 159.333 181.721 158.903 181.474 158.35C181.234 157.797 181.114 157.15 181.114 156.41C181.114 155.67 181.234 155.027 181.474 154.48C181.721 153.933 182.094 153.51 182.594 153.21C183.101 152.903 183.744 152.75 184.524 152.75C185.298 152.75 185.934 152.903 186.434 153.21C186.934 153.51 187.304 153.937 187.544 154.49C187.791 155.037 187.914 155.68 187.914 156.42ZM182.704 156.42C182.704 157.167 182.848 157.757 183.134 158.19C183.421 158.617 183.881 158.83 184.514 158.83C185.161 158.83 185.624 158.617 185.904 158.19C186.184 157.757 186.324 157.167 186.324 156.42C186.324 155.667 186.184 155.077 185.904 154.65C185.624 154.223 185.164 154.01 184.524 154.01C183.884 154.01 183.421 154.223 183.134 154.65C182.848 155.077 182.704 155.667 182.704 156.42ZM191.613 152.86C192.566 152.86 193.286 152.993 193.773 153.26C194.26 153.527 194.503 153.997 194.503 154.67C194.503 155.077 194.406 155.42 194.213 155.7C194.026 155.98 193.756 156.15 193.403 156.21V156.26C193.643 156.307 193.86 156.39 194.053 156.51C194.246 156.63 194.4 156.803 194.513 157.03C194.626 157.257 194.683 157.557 194.683 157.93C194.683 158.577 194.45 159.083 193.983 159.45C193.516 159.817 192.876 160 192.063 160H189.393V152.86H191.613ZM191.783 155.69C192.223 155.69 192.526 155.62 192.693 155.48C192.866 155.34 192.953 155.137 192.953 154.87C192.953 154.597 192.853 154.4 192.653 154.28C192.453 154.16 192.136 154.1 191.703 154.1H190.903V155.69H191.783ZM190.903 156.89V158.75H191.893C192.346 158.75 192.663 158.663 192.843 158.49C193.023 158.31 193.113 158.073 193.113 157.78C193.113 157.513 193.02 157.3 192.833 157.14C192.653 156.973 192.323 156.89 191.843 156.89H190.903ZM200.222 160H196.112V152.86H200.222V154.1H197.622V155.67H200.042V156.91H197.622V158.75H200.222V160ZM203.988 152.86C204.908 152.86 205.578 153.06 205.998 153.46C206.424 153.853 206.638 154.397 206.638 155.09C206.638 155.503 206.551 155.893 206.378 156.26C206.204 156.62 205.914 156.91 205.508 157.13C205.108 157.35 204.561 157.46 203.868 157.46H203.218V160H201.708V152.86H203.988ZM203.908 154.1H203.218V156.22H203.718C204.144 156.22 204.481 156.137 204.728 155.97C204.981 155.797 205.108 155.52 205.108 155.14C205.108 154.447 204.708 154.1 203.908 154.1ZM212.097 160H207.987V152.86H212.097V154.1H209.497V155.67H211.917V156.91H209.497V158.75H212.097V160ZM219.433 160H217.923V156.92H215.093V160H213.583V152.86H215.093V155.66H217.923V152.86H219.433V160ZM221.229 152.86H222.589V156.31C222.589 156.477 222.586 156.663 222.579 156.87C222.572 157.077 222.566 157.28 222.559 157.48C222.552 157.673 222.546 157.843 222.539 157.99C222.532 158.13 222.526 158.227 222.519 158.28H222.549L225.849 152.86H227.659V160H226.309V156.57C226.309 156.39 226.312 156.193 226.319 155.98C226.326 155.76 226.332 155.55 226.339 155.35C226.352 155.15 226.362 154.977 226.369 154.83C226.382 154.677 226.392 154.577 226.399 154.53H226.359L223.049 160H221.229V152.86ZM233.572 160H229.462V152.86H233.572V154.1H230.972V155.67H233.392V156.91H230.972V158.75H233.572V160Z" fill="#061058"/>
</g>
<defs>
<clipPath id="clip0">
<rect width="57" height="59" fill="white" transform="translate(17.8804 77.6788) rotate(-26.2966)"/>
</clipPath>
<clipPath id="clip1">
<rect width="268" height="234" fill="white" transform="translate(43 127)"/>
</clipPath>
</defs>
</svg>
