<svg width="12" height="20" viewBox="0 0 12 20" fill="none" xmlns="http://www.w3.org/2000/svg">
<path d="M11.6983 1.34921C9.92764 0.461759 7.97724 -6.10352e-05 5.99998 -6.10352e-05C4.02273 -6.10352e-05 2.07233 0.461759 0.30163 1.34921C0.210541 1.39512 0.134011 1.46583 0.0807027 1.55333C0.0273947 1.64084 -0.000562961 1.74165 -7.12947e-06 1.84435V19.4495C-5.04703e-05 19.5433 0.0236777 19.6356 0.0689257 19.7175C0.114174 19.7994 0.179439 19.8683 0.258521 19.9177C0.337603 19.967 0.427878 19.9951 0.520769 19.9994C0.613661 20.0036 0.706084 19.9838 0.789264 19.9419C2.4083 19.1299 4.19185 18.7073 5.99998 18.7073C7.80812 18.7073 9.59167 19.1299 11.2107 19.9419C11.2939 19.9838 11.3863 20.0036 11.4792 19.9994C11.5721 19.9951 11.6624 19.967 11.7414 19.9177C11.8205 19.8683 11.8858 19.7994 11.931 19.7175C11.9763 19.6356 12 19.5433 12 19.4495V1.84435C12.0005 1.74165 11.9726 1.64084 11.9193 1.55333C11.866 1.46583 11.7894 1.39512 11.6983 1.34921V1.34921ZM9.78925 14.8381C9.74345 14.9765 9.64503 15.0908 9.51564 15.156C9.38624 15.2212 9.23647 15.2319 9.09925 15.1858C7.08598 14.5141 4.9118 14.5141 2.89853 15.1858C2.83049 15.2086 2.75864 15.2177 2.68711 15.2125C2.61558 15.2073 2.54576 15.188 2.48164 15.1556C2.41752 15.1232 2.36035 15.0784 2.31339 15.0237C2.26644 14.9691 2.23063 14.9056 2.20799 14.837C2.18535 14.7683 2.17634 14.6959 2.18147 14.6237C2.1866 14.5516 2.20577 14.4812 2.23788 14.4165C2.26999 14.3518 2.31442 14.2941 2.36863 14.2468C2.42284 14.1994 2.48576 14.1633 2.55381 14.1405C4.79081 13.3933 7.20698 13.3933 9.44398 14.1405C9.5125 14.1631 9.57589 14.1993 9.63046 14.2468C9.68504 14.2944 9.72972 14.3524 9.76194 14.4175C9.79415 14.4825 9.81324 14.5534 9.81812 14.626C9.82299 14.6986 9.81355 14.7714 9.79034 14.8403L9.78925 14.8381ZM9.78925 10.4368C9.74345 10.5752 9.64503 10.6895 9.51564 10.7547C9.38624 10.82 9.23647 10.8306 9.09925 10.7845C7.08598 10.1128 4.9118 10.1128 2.89853 10.7845C2.83049 10.8073 2.75864 10.8164 2.68711 10.8112C2.61558 10.8061 2.54576 10.7867 2.48164 10.7543C2.41752 10.7219 2.36035 10.6771 2.31339 10.6225C2.26644 10.5678 2.23063 10.5043 2.20799 10.4357C2.18535 10.367 2.17634 10.2946 2.18147 10.2224C2.1866 10.1503 2.20577 10.0799 2.23788 10.0152C2.26999 9.95051 2.31442 9.89284 2.36863 9.84549C2.42284 9.79813 2.48576 9.762 2.55381 9.73917C4.79081 8.99206 7.20698 8.99206 9.44398 9.73917C9.5125 9.76185 9.57589 9.79801 9.63046 9.84556C9.68504 9.89311 9.72972 9.9511 9.76194 10.0162C9.79415 10.0813 9.81324 10.1521 9.81812 10.2247C9.82299 10.2973 9.81355 10.3701 9.79034 10.439L9.78925 10.4368ZM9.78925 6.03548C9.74345 6.17387 9.64503 6.28825 9.51564 6.35345C9.38624 6.41866 9.23647 6.42935 9.09925 6.38319C7.08598 5.71152 4.9118 5.71152 2.89853 6.38319C2.83049 6.40602 2.75864 6.4151 2.68711 6.40993C2.61558 6.40476 2.54576 6.38543 2.48164 6.35304C2.41752 6.32065 2.36035 6.27583 2.31339 6.22116C2.26644 6.16649 2.23063 6.10302 2.20799 6.03438C2.18535 5.96575 2.17634 5.89329 2.18147 5.82114C2.1866 5.74899 2.20577 5.67857 2.23788 5.61389C2.26999 5.54922 2.31442 5.49155 2.36863 5.44419C2.42284 5.39684 2.48576 5.36071 2.55381 5.33788C4.79081 4.59076 7.20698 4.59076 9.44398 5.33788C9.5125 5.36056 9.57589 5.39672 9.63046 5.44427C9.68504 5.49181 9.72972 5.54981 9.76194 5.61489C9.79415 5.67997 9.81324 5.75084 9.81812 5.82341C9.82299 5.89599 9.81355 5.96882 9.79034 6.03769L9.78925 6.03548Z" fill="#00A87C" fill-opacity="0.5"/>
</svg>
